REM DIRINDEX 1\2\4\18,1\2\4\19,1\2\5\20,1\2\5\21,1\2\6\22,1\2\7\23,1\2\8\24,1\2\8\25,1\2\9\26,1\2\10\27,1\3\11\28,1\3\11\29,1\3\11\30,1\3\11\31,1\3\12\32,1\3\12\33,1\3\12\34,1\3\12\35,1\3\13\36,1\3\13\37,1\3\14\38,1\3\14\39,1\3\15\40,1\3\15\41,1\3\15\42,1\3\16\43,1\3\16\44,1\3\17\45,1\3\17\46
REM DIRNAME cjc023,folder01,folder02,folder03,folder04,folder05,folder06,folder07,folder08,folder09,folder10,folder11,folder12,folder13,folder14,folder15,folder16,folder17,folder18,folder19,folder20,folder21,folder22,folder23,folder24,folder25,folder26,folder27,folder28,folder29,folder30,folder31,folder32,folder33,folder34,folder35,folder36,folder37,folder38,folder39,folder40,folder41,folder42,folder43,folder44,folder45
TITLE ""
FILE "08.mp3" MP3
  TRACK 01 AUDIO
    TITLE "0:"
    INDEX 01 00:00:00
  TRACK 02 AUDIO
    TITLE "18:cjc023_1233"
    INDEX 01 00:00:13
  TRACK 03 AUDIO
    TITLE "0:"
    INDEX 01 00:01:44
  TRACK 04 AUDIO
    TITLE "19:cjc023_1234"
    INDEX 01 00:01:66
  TRACK 05 AUDIO
    TITLE "0:"
    INDEX 01 00:03:53
  TRACK 06 AUDIO
    TITLE "18:cjc023_1235"
    INDEX 01 00:04:50
  TRACK 07 AUDIO
    TITLE "0:"
    INDEX 01 00:05:71
  TRACK 08 AUDIO
    TITLE "19:cjc023_1236"
    INDEX 01 00:06:18
  TRACK 09 AUDIO
    TITLE "0:"
    INDEX 01 00:08:17
  TRACK 10 AUDIO
    TITLE "18:cjc023_1237"
    INDEX 01 00:09:18
  TRACK 11 AUDIO
    TITLE "0:"
    INDEX 01 00:10:37
  TRACK 12 AUDIO
    TITLE "19:cjc023_1238"
    INDEX 01 00:10:59
  TRACK 13 AUDIO
    TITLE "0:"
    INDEX 01 00:12:50
  TRACK 14 AUDIO
    TITLE "18:cjc023_1239"
    INDEX 01 00:13:47
  TRACK 15 AUDIO
    TITLE "0:"
    INDEX 01 00:14:70
  TRACK 16 AUDIO
    TITLE "19:cjc023_1240"
    INDEX 01 00:15:19
  TRACK 17 AUDIO
    TITLE "0:"
    INDEX 01 00:18:56
  TRACK 18 AUDIO
    TITLE "18:cjc023_1241"
    INDEX 01 00:19:52
  TRACK 19 AUDIO
    TITLE "0:"
    INDEX 01 00:20:51
  TRACK 20 AUDIO
    TITLE "19:cjc023_1242"
    INDEX 01 00:21:00
  TRACK 21 AUDIO
    TITLE "0:"
    INDEX 01 00:23:36
  TRACK 22 AUDIO
    TITLE "18:cjc023_1243"
    INDEX 01 00:24:35
  TRACK 23 AUDIO
    TITLE "0:"
    INDEX 01 00:25:46
  TRACK 24 AUDIO
    TITLE "19:cjc023_1244"
    INDEX 01 00:25:68
  TRACK 25 AUDIO
    TITLE "0:"
    INDEX 01 00:27:65
  TRACK 26 AUDIO
    TITLE "18:cjc023_1245"
    INDEX 01 00:28:62
  TRACK 27 AUDIO
    TITLE "0:"
    INDEX 01 00:30:03
  TRACK 28 AUDIO
    TITLE "19:cjc023_1246"
    INDEX 01 00:30:26
  TRACK 29 AUDIO
    TITLE "0:"
    INDEX 01 00:32:43
  TRACK 30 AUDIO
    TITLE "18:cjc023_1247"
    INDEX 01 00:33:42
  TRACK 31 AUDIO
    TITLE "0:"
    INDEX 01 00:34:59
  TRACK 32 AUDIO
    TITLE "19:cjc023_1248"
    INDEX 01 00:35:08
  TRACK 33 AUDIO
    TITLE "0:"
    INDEX 01 00:37:20
  TRACK 34 AUDIO
    TITLE "18:cjc023_1249"
    INDEX 01 00:38:16
  TRACK 35 AUDIO
    TITLE "0:"
    INDEX 01 00:39:51
  TRACK 36 AUDIO
    TITLE "19:cjc023_1250"
    INDEX 01 00:39:70
  TRACK 37 AUDIO
    TITLE "0:"
    INDEX 01 00:42:10
  TRACK 38 AUDIO
    TITLE "18:cjc023_1251"
    INDEX 01 00:43:09
  TRACK 39 AUDIO
    TITLE "0:"
    INDEX 01 00:44:30
  TRACK 40 AUDIO
    TITLE "19:cjc023_1252"
    INDEX 01 00:44:54
  TRACK 41 AUDIO
    TITLE "0:"
    INDEX 01 00:47:07
  TRACK 42 AUDIO
    TITLE "18:cjc023_1253"
    INDEX 01 00:48:06
  TRACK 43 AUDIO
    TITLE "0:"
    INDEX 01 00:49:16
  TRACK 44 AUDIO
    TITLE "19:cjc023_1254"
    INDEX 01 00:49:37
  TRACK 45 AUDIO
    TITLE "0:"
    INDEX 01 00:51:28
  TRACK 46 AUDIO
    TITLE "18:cjc023_1255"
    INDEX 01 00:52:26
  TRACK 47 AUDIO
    TITLE "0:"
    INDEX 01 00:53:33
  TRACK 48 AUDIO
    TITLE "19:cjc023_1256"
    INDEX 01 00:53:53
  TRACK 49 AUDIO
    TITLE "0:"
    INDEX 01 00:56:63
  TRACK 50 AUDIO
    TITLE "18:cjc023_1257"
    INDEX 01 00:57:60
  TRACK 51 AUDIO
    TITLE "0:"
    INDEX 01 00:59:02
  TRACK 52 AUDIO
    TITLE "19:cjc023_1258"
    INDEX 01 00:59:22
  TRACK 53 AUDIO
    TITLE "0:"
    INDEX 01 01:01:27
  TRACK 54 AUDIO
    TITLE "18:cjc023_1259"
    INDEX 01 01:02:22
  TRACK 55 AUDIO
    TITLE "0:"
    INDEX 01 01:03:41
  TRACK 56 AUDIO
    TITLE "19:cjc023_1260"
    INDEX 01 01:03:65
  TRACK 57 AUDIO
    TITLE "0:"
    INDEX 01 01:06:67
  TRACK 58 AUDIO
    TITLE "18:cjc023_1261"
    INDEX 01 01:07:66
  TRACK 59 AUDIO
    TITLE "0:"
    INDEX 01 01:09:20
  TRACK 60 AUDIO
    TITLE "19:cjc023_1262"
    INDEX 01 01:09:44
  TRACK 61 AUDIO
    TITLE "0:"
    INDEX 01 01:11:31
  TRACK 62 AUDIO
    TITLE "18:cjc023_1263"
    INDEX 01 01:12:28
  TRACK 63 AUDIO
    TITLE "0:"
    INDEX 01 01:13:40
  TRACK 64 AUDIO
    TITLE "19:cjc023_1264"
    INDEX 01 01:13:65
  TRACK 65 AUDIO
    TITLE "0:"
    INDEX 01 01:16:24
  TRACK 66 AUDIO
    TITLE "18:cjc023_1265"
    INDEX 01 01:17:20
  TRACK 67 AUDIO
    TITLE "0:"
    INDEX 01 01:18:58
  TRACK 68 AUDIO
    TITLE "19:cjc023_1266"
    INDEX 01 01:19:03
  TRACK 69 AUDIO
    TITLE "0:"
    INDEX 01 01:21:55
  TRACK 70 AUDIO
    TITLE "18:cjc023_1267"
    INDEX 01 01:22:52
  TRACK 71 AUDIO
    TITLE "0:"
    INDEX 01 01:24:06
  TRACK 72 AUDIO
    TITLE "19:cjc023_1268"
    INDEX 01 01:24:28
  TRACK 73 AUDIO
    TITLE "0:"
    INDEX 01 01:28:06
  TRACK 74 AUDIO
    TITLE "18:cjc023_1269"
    INDEX 01 01:29:05
  TRACK 75 AUDIO
    TITLE "0:"
    INDEX 01 01:30:01
  TRACK 76 AUDIO
    TITLE "19:cjc023_1270"
    INDEX 01 01:30:28
  TRACK 77 AUDIO
    TITLE "0:"
    INDEX 01 01:32:43
  TRACK 78 AUDIO
    TITLE "18:cjc023_1271"
    INDEX 01 01:33:46
  TRACK 79 AUDIO
    TITLE "0:"
    INDEX 01 01:34:57
  TRACK 80 AUDIO
    TITLE "19:cjc023_1272"
    INDEX 01 01:35:02
  TRACK 81 AUDIO
    TITLE "0:"
    INDEX 01 01:36:60
  TRACK 82 AUDIO
    TITLE "18:cjc023_1273"
    INDEX 01 01:37:56
  TRACK 83 AUDIO
    TITLE "0:"
    INDEX 01 01:39:08
  TRACK 84 AUDIO
    TITLE "19:cjc023_1274"
    INDEX 01 01:39:31
  TRACK 85 AUDIO
    TITLE "0:"
    INDEX 01 01:41:26
  TRACK 86 AUDIO
    TITLE "18:cjc023_1275"
    INDEX 01 01:42:24
  TRACK 87 AUDIO
    TITLE "0:"
    INDEX 01 01:43:41
  TRACK 88 AUDIO
    TITLE "19:cjc023_1276"
    INDEX 01 01:43:66
  TRACK 89 AUDIO
    TITLE "0:"
    INDEX 01 01:45:73
  TRACK 90 AUDIO
    TITLE "18:cjc023_1277"
    INDEX 01 01:46:70
  TRACK 91 AUDIO
    TITLE "0:"
    INDEX 01 01:48:18
  TRACK 92 AUDIO
    TITLE "19:cjc023_1278"
    INDEX 01 01:48:42
  TRACK 93 AUDIO
    TITLE "0:"
    INDEX 01 01:50:21
  TRACK 94 AUDIO
    TITLE "18:cjc023_1279"
    INDEX 01 01:51:19
  TRACK 95 AUDIO
    TITLE "0:"
    INDEX 01 01:52:38
  TRACK 96 AUDIO
    TITLE "19:cjc023_1280"
    INDEX 01 01:52:61
  TRACK 97 AUDIO
    TITLE "0:"
    INDEX 01 01:55:56
  TRACK 98 AUDIO
    TITLE "18:cjc023_1281"
    INDEX 01 01:56:57
  TRACK 99 AUDIO
    TITLE "0:"
    INDEX 01 01:57:72
  TRACK 100 AUDIO
    TITLE "19:cjc023_1282"
    INDEX 01 01:58:23
  TRACK 101 AUDIO
    TITLE "0:"
    INDEX 01 01:59:71
  TRACK 102 AUDIO
    TITLE "18:cjc023_1283"
    INDEX 01 02:00:69
  TRACK 103 AUDIO
    TITLE "0:"
    INDEX 01 02:02:42
  TRACK 104 AUDIO
    TITLE "19:cjc023_1284"
    INDEX 01 02:02:66
  TRACK 105 AUDIO
    TITLE "0:"
    INDEX 01 02:05:62
  TRACK 106 AUDIO
    TITLE "18:cjc023_1285"
    INDEX 01 02:06:63
  TRACK 107 AUDIO
    TITLE "0:"
    INDEX 01 02:08:03
  TRACK 108 AUDIO
    TITLE "19:cjc023_1286"
    INDEX 01 02:08:25
  TRACK 109 AUDIO
    TITLE "0:"
    INDEX 01 02:10:14
  TRACK 110 AUDIO
    TITLE "18:cjc023_1287"
    INDEX 01 02:11:10
  TRACK 111 AUDIO
    TITLE "0:"
    INDEX 01 02:12:13
  TRACK 112 AUDIO
    TITLE "19:cjc023_1288"
    INDEX 01 02:12:33
  TRACK 113 AUDIO
    TITLE "0:"
    INDEX 01 02:14:45
  TRACK 114 AUDIO
    TITLE "18:cjc023_1289"
    INDEX 01 02:15:43
  TRACK 115 AUDIO
    TITLE "0:"
    INDEX 01 02:16:60
  TRACK 116 AUDIO
    TITLE "19:cjc023_1290"
    INDEX 01 02:17:08
  TRACK 117 AUDIO
    TITLE "0:"
    INDEX 01 02:18:72
  TRACK 118 AUDIO
    TITLE "18:cjc023_1291"
    INDEX 01 02:19:70
  TRACK 119 AUDIO
    TITLE "0:"
    INDEX 01 02:21:18
  TRACK 120 AUDIO
    TITLE "19:cjc023_1292"
    INDEX 01 02:21:43
  TRACK 121 AUDIO
    TITLE "0:"
    INDEX 01 02:24:36
  TRACK 122 AUDIO
    TITLE "18:cjc023_1293"
    INDEX 01 02:25:33
  TRACK 123 AUDIO
    TITLE "0:"
    INDEX 01 02:26:66
  TRACK 124 AUDIO
    TITLE "19:cjc023_1294"
    INDEX 01 02:27:20
  TRACK 125 AUDIO
    TITLE "0:"
    INDEX 01 02:29:02
  TRACK 126 AUDIO
    TITLE "18:cjc023_1295"
    INDEX 01 02:30:03
  TRACK 127 AUDIO
    TITLE "0:"
    INDEX 01 02:31:28
  TRACK 128 AUDIO
    TITLE "19:cjc023_1296"
    INDEX 01 02:31:48
  TRACK 129 AUDIO
    TITLE "0:"
    INDEX 01 02:33:64
  TRACK 130 AUDIO
    TITLE "18:cjc023_1297"
    INDEX 01 02:34:60
  TRACK 131 AUDIO
    TITLE "0:"
    INDEX 01 02:35:59
  TRACK 132 AUDIO
    TITLE "19:cjc023_1298"
    INDEX 01 02:36:08
  TRACK 133 AUDIO
    TITLE "0:"
    INDEX 01 02:37:70
  TRACK 134 AUDIO
    TITLE "18:cjc023_1299"
    INDEX 01 02:38:67
  TRACK 135 AUDIO
    TITLE "0:"
    INDEX 01 02:40:17
  TRACK 136 AUDIO
    TITLE "19:cjc023_1300"
    INDEX 01 02:40:39
  TRACK 137 AUDIO
    TITLE "0:"
    INDEX 01 02:42:59
  TRACK 138 AUDIO
    TITLE "18:cjc023_1301"
    INDEX 01 02:43:63
  TRACK 139 AUDIO
    TITLE "0:"
    INDEX 01 02:45:03
  TRACK 140 AUDIO
    TITLE "19:cjc023_1302"
    INDEX 01 02:45:28
  TRACK 141 AUDIO
    TITLE "0:"
    INDEX 01 02:47:62
  TRACK 142 AUDIO
    TITLE "18:cjc023_1303"
    INDEX 01 02:48:60
  TRACK 143 AUDIO
    TITLE "0:"
    INDEX 01 02:49:73
  TRACK 144 AUDIO
    TITLE "19:cjc023_1304"
    INDEX 01 02:50:19
  TRACK 145 AUDIO
    TITLE "0:"
    INDEX 01 02:53:45
  TRACK 146 AUDIO
    TITLE "18:cjc023_1305"
    INDEX 01 02:54:41
  TRACK 147 AUDIO
    TITLE "0:"
    INDEX 01 02:55:46
  TRACK 148 AUDIO
    TITLE "19:cjc023_1306"
    INDEX 01 02:55:68
  TRACK 149 AUDIO
    TITLE "0:"
    INDEX 01 02:57:37
  TRACK 150 AUDIO
    TITLE "18:cjc023_1307"
    INDEX 01 02:58:41
  TRACK 151 AUDIO
    TITLE "0:"
    INDEX 01 02:59:38
  TRACK 152 AUDIO
    TITLE "19:cjc023_1308"
    INDEX 01 02:59:58
  TRACK 153 AUDIO
    TITLE "0:"
    INDEX 01 03:02:56
  TRACK 154 AUDIO
    TITLE "18:cjc023_1309"
    INDEX 01 03:03:65
  TRACK 155 AUDIO
    TITLE "0:"
    INDEX 01 03:05:05
  TRACK 156 AUDIO
    TITLE "19:cjc023_1310"
    INDEX 01 03:05:25
  TRACK 157 AUDIO
    TITLE "0:"
    INDEX 01 03:07:14
  TRACK 158 AUDIO
    TITLE "18:cjc023_1311"
    INDEX 01 03:08:12
  TRACK 159 AUDIO
    TITLE "0:"
    INDEX 01 03:09:29
  TRACK 160 AUDIO
    TITLE "19:cjc023_1312"
    INDEX 01 03:09:48
  TRACK 161 AUDIO
    TITLE "0:"
    INDEX 01 03:11:24
  TRACK 162 AUDIO
    TITLE "18:cjc023_1313"
    INDEX 01 03:12:21
  TRACK 163 AUDIO
    TITLE "0:"
    INDEX 01 03:13:56
  TRACK 164 AUDIO
    TITLE "19:cjc023_1314"
    INDEX 01 03:14:06
  TRACK 165 AUDIO
    TITLE "0:"
    INDEX 01 03:16:60
  TRACK 166 AUDIO
    TITLE "18:cjc023_1315"
    INDEX 01 03:17:57
  TRACK 167 AUDIO
    TITLE "0:"
    INDEX 01 03:19:07
  TRACK 168 AUDIO
    TITLE "19:cjc023_1316"
    INDEX 01 03:19:25
  TRACK 169 AUDIO
    TITLE "0:"
    INDEX 01 03:21:16
  TRACK 170 AUDIO
    TITLE "18:cjc023_1317"
    INDEX 01 03:22:16
  TRACK 171 AUDIO
    TITLE "0:"
    INDEX 01 03:23:37
  TRACK 172 AUDIO
    TITLE "19:cjc023_1318"
    INDEX 01 03:23:58
  TRACK 173 AUDIO
    TITLE "0:"
    INDEX 01 03:26:43
  TRACK 174 AUDIO
    TITLE "18:cjc023_1319"
    INDEX 01 03:27:42
  TRACK 175 AUDIO
    TITLE "0:"
    INDEX 01 03:28:73
  TRACK 176 AUDIO
    TITLE "19:cjc023_1320"
    INDEX 01 03:29:25
  TRACK 177 AUDIO
    TITLE "0:"
    INDEX 01 03:32:24
  TRACK 178 AUDIO
    TITLE "18:cjc023_1321"
    INDEX 01 03:33:23
  TRACK 179 AUDIO
    TITLE "0:"
    INDEX 01 03:34:36
  TRACK 180 AUDIO
    TITLE "19:cjc023_1322"
    INDEX 01 03:34:58
  TRACK 181 AUDIO
    TITLE "0:"
    INDEX 01 03:37:15
  TRACK 182 AUDIO
    TITLE "18:cjc023_1323"
    INDEX 01 03:38:13
  TRACK 183 AUDIO
    TITLE "0:"
    INDEX 01 03:39:34
  TRACK 184 AUDIO
    TITLE "19:cjc023_1324"
    INDEX 01 03:39:55
  TRACK 185 AUDIO
    TITLE "0:"
    INDEX 01 03:41:44
  TRACK 186 AUDIO
    TITLE "18:cjc023_1325"
    INDEX 01 03:42:42
  TRACK 187 AUDIO
    TITLE "0:"
    INDEX 01 03:43:59
  TRACK 188 AUDIO
    TITLE "19:cjc023_1326"
    INDEX 01 03:44:07
  TRACK 189 AUDIO
    TITLE "0:"
    INDEX 01 03:45:58
  TRACK 190 AUDIO
    TITLE "18:cjc023_1327"
    INDEX 01 03:46:65
  TRACK 191 AUDIO
    TITLE "0:"
    INDEX 01 03:47:72
  TRACK 192 AUDIO
    TITLE "19:cjc023_1328"
    INDEX 01 03:48:17
  TRACK 193 AUDIO
    TITLE "0:"
    INDEX 01 03:51:17
  TRACK 194 AUDIO
    TITLE "18:cjc023_1329"
    INDEX 01 03:52:13
  TRACK 195 AUDIO
    TITLE "0:"
    INDEX 01 03:53:22
  TRACK 196 AUDIO
    TITLE "19:cjc023_1330"
    INDEX 01 03:53:45
  TRACK 197 AUDIO
    TITLE "0:"
    INDEX 01 03:55:40
  TRACK 198 AUDIO
    TITLE "18:cjc023_1331"
    INDEX 01 03:56:38
  TRACK 199 AUDIO
    TITLE "0:"
    INDEX 01 03:57:57
  TRACK 200 AUDIO
    TITLE "19:cjc023_1332"
    INDEX 01 03:58:06
  TRACK 201 AUDIO
    TITLE "0:"
    INDEX 01 04:00:28
  TRACK 202 AUDIO
    TITLE "18:cjc023_1333"
    INDEX 01 04:01:29
  TRACK 203 AUDIO
    TITLE "0:"
    INDEX 01 04:02:46
  TRACK 204 AUDIO
    TITLE "19:cjc023_1334"
    INDEX 01 04:02:64
  TRACK 205 AUDIO
    TITLE "0:"
    INDEX 01 04:04:39
  TRACK 206 AUDIO
    TITLE "18:cjc023_1335"
    INDEX 01 04:05:35
  TRACK 207 AUDIO
    TITLE "0:"
    INDEX 01 04:06:42
  TRACK 208 AUDIO
    TITLE "19:cjc023_1336"
    INDEX 01 04:06:62
  TRACK 209 AUDIO
    TITLE "0:"
    INDEX 01 04:09:03
  TRACK 210 AUDIO
    TITLE "18:cjc023_1337"
    INDEX 01 04:09:70
  TRACK 211 AUDIO
    TITLE "0:"
    INDEX 01 04:11:10
  TRACK 212 AUDIO
    TITLE "19:cjc023_1338"
    INDEX 01 04:11:30
  TRACK 213 AUDIO
    TITLE "0:"
    INDEX 01 04:14:06
  TRACK 214 AUDIO
    TITLE "18:cjc023_1339"
    INDEX 01 04:15:02
  TRACK 215 AUDIO
    TITLE "0:"
    INDEX 01 04:16:15
  TRACK 216 AUDIO
    TITLE "19:cjc023_1340"
    INDEX 01 04:16:35
  TRACK 217 AUDIO
    TITLE "0:"
    INDEX 01 04:18:16
  TRACK 218 AUDIO
    TITLE "18:cjc023_1341"
    INDEX 01 04:19:14
  TRACK 219 AUDIO
    TITLE "0:"
    INDEX 01 04:20:21
  TRACK 220 AUDIO
    TITLE "19:cjc023_1342"
    INDEX 01 04:20:42
  TRACK 221 AUDIO
    TITLE "0:"
    INDEX 01 04:22:45
  TRACK 222 AUDIO
    TITLE "18:cjc023_1343"
    INDEX 01 04:23:41
  TRACK 223 AUDIO
    TITLE "0:"
    INDEX 01 04:24:71
  TRACK 224 AUDIO
    TITLE "19:cjc023_1344"
    INDEX 01 04:25:20
  TRACK 225 AUDIO
    TITLE "0:"
    INDEX 01 04:27:72
  TRACK 226 AUDIO
    TITLE "18:cjc023_1345"
    INDEX 01 04:28:69
  TRACK 227 AUDIO
    TITLE "0:"
    INDEX 01 04:29:71
  TRACK 228 AUDIO
    TITLE "19:cjc023_1346"
    INDEX 01 04:30:21
  TRACK 229 AUDIO
    TITLE "0:"
    INDEX 01 04:32:59
  TRACK 230 AUDIO
    TITLE "18:cjc023_1347"
    INDEX 01 04:33:55
  TRACK 231 AUDIO
    TITLE "0:"
    INDEX 01 04:35:01
  TRACK 232 AUDIO
    TITLE "19:cjc023_1348"
    INDEX 01 04:35:22
  TRACK 233 AUDIO
    TITLE "0:"
    INDEX 01 04:37:13
  TRACK 234 AUDIO
    TITLE "18:cjc023_1349"
    INDEX 01 04:38:11
  TRACK 235 AUDIO
    TITLE "0:"
    INDEX 01 04:39:22
  TRACK 236 AUDIO
    TITLE "19:cjc023_1350"
    INDEX 01 04:39:51
  TRACK 237 AUDIO
    TITLE "0:"
    INDEX 01 04:42:46
  TRACK 238 AUDIO
    TITLE "18:cjc023_1351"
    INDEX 01 04:43:43
  TRACK 239 AUDIO
    TITLE "0:"
    INDEX 01 04:44:55
  TRACK 240 AUDIO
    TITLE "19:cjc023_1352"
    INDEX 01 04:45:03
  TRACK 241 AUDIO
    TITLE "0:"
    INDEX 01 04:47:55
  TRACK 242 AUDIO
    TITLE "18:cjc023_1353"
    INDEX 01 04:48:52
  TRACK 243 AUDIO
    TITLE "0:"
    INDEX 01 04:50:04
  TRACK 244 AUDIO
    TITLE "19:cjc023_1354"
    INDEX 01 04:50:28
  TRACK 245 AUDIO
    TITLE "0:"
    INDEX 01 04:52:13
  TRACK 246 AUDIO
    TITLE "18:cjc023_1355"
    INDEX 01 04:53:12
  TRACK 247 AUDIO
    TITLE "0:"
    INDEX 01 04:54:33
  TRACK 248 AUDIO
    TITLE "19:cjc023_1356"
    INDEX 01 04:54:53
  TRACK 249 AUDIO
    TITLE "0:"
    INDEX 01 04:57:22
  TRACK 250 AUDIO
    TITLE "18:cjc023_1357"
    INDEX 01 04:58:21
  TRACK 251 AUDIO
    TITLE "0:"
    INDEX 01 04:59:50
  TRACK 252 AUDIO
    TITLE "19:cjc023_1358"
    INDEX 01 04:59:66
  TRACK 253 AUDIO
    TITLE "0:"
    INDEX 01 05:03:07
  TRACK 254 AUDIO
    TITLE "18:cjc023_1359"
    INDEX 01 05:04:08
  TRACK 255 AUDIO
    TITLE "0:"
    INDEX 01 05:05:10
  TRACK 256 AUDIO
    TITLE "19:cjc023_1360"
    INDEX 01 05:05:33
  TRACK 257 AUDIO
    TITLE "0:"
    INDEX 01 05:07:71
  TRACK 258 AUDIO
    TITLE "18:cjc023_1361"
    INDEX 01 05:08:69
  TRACK 259 AUDIO
    TITLE "0:"
    INDEX 01 05:10:11
  TRACK 260 AUDIO
    TITLE "19:cjc023_1362"
    INDEX 01 05:10:36
  TRACK 261 AUDIO
    TITLE "0:"
    INDEX 01 05:14:17
  TRACK 262 AUDIO
    TITLE "18:cjc023_1363"
    INDEX 01 05:15:16
  TRACK 263 AUDIO
    TITLE "0:"
    INDEX 01 05:16:41
  TRACK 264 AUDIO
    TITLE "19:cjc023_1364"
    INDEX 01 05:16:66
  TRACK 265 AUDIO
    TITLE "0:"
    INDEX 01 05:19:00
  TRACK 266 AUDIO
    TITLE "18:cjc023_1365"
    INDEX 01 05:19:73
  TRACK 267 AUDIO
    TITLE "0:"
    INDEX 01 05:21:09
  TRACK 268 AUDIO
    TITLE "19:cjc023_1366"
    INDEX 01 05:21:30
  TRACK 269 AUDIO
    TITLE "0:"
    INDEX 01 05:23:35
  TRACK 270 AUDIO
    TITLE "18:cjc023_1367"
    INDEX 01 05:24:33
  TRACK 271 AUDIO
    TITLE "0:"
    INDEX 01 05:25:42
  TRACK 272 AUDIO
    TITLE "19:cjc023_1368"
    INDEX 01 05:25:67
  TRACK 273 AUDIO
    TITLE "0:"
    INDEX 01 05:28:48
  TRACK 274 AUDIO
    TITLE "18:cjc023_1369"
    INDEX 01 05:29:45
  TRACK 275 AUDIO
    TITLE "0:"
    INDEX 01 05:30:63
  TRACK 276 AUDIO
    TITLE "19:cjc023_1370"
    INDEX 01 05:31:11
  TRACK 277 AUDIO
    TITLE "0:"
    INDEX 01 05:33:18
  TRACK 278 AUDIO
    TITLE "18:cjc023_1371"
    INDEX 01 05:34:17
  TRACK 279 AUDIO
    TITLE "0:"
    INDEX 01 05:35:36
  TRACK 280 AUDIO
    TITLE "19:cjc023_1372"
    INDEX 01 05:35:60
  TRACK 281 AUDIO
    TITLE "0:"
    INDEX 01 05:37:39
  TRACK 282 AUDIO
    TITLE "18:cjc023_1373"
    INDEX 01 05:38:35
  TRACK 283 AUDIO
    TITLE "0:"
    INDEX 01 05:39:42
  TRACK 284 AUDIO
    TITLE "19:cjc023_1374"
    INDEX 01 05:39:67
  TRACK 285 AUDIO
    TITLE "0:"
    INDEX 01 05:41:41
  TRACK 286 AUDIO
    TITLE "18:cjc023_1375"
    INDEX 01 05:42:38
  TRACK 287 AUDIO
    TITLE "0:"
    INDEX 01 05:43:50
  TRACK 288 AUDIO
    TITLE "19:cjc023_1376"
    INDEX 01 05:43:73
  TRACK 289 AUDIO
    TITLE "0:"
    INDEX 01 05:46:18
  TRACK 290 AUDIO
    TITLE "18:cjc023_1377"
    INDEX 01 05:47:16
  TRACK 291 AUDIO
    TITLE "0:"
    INDEX 01 05:48:21
  TRACK 292 AUDIO
    TITLE "19:cjc023_1378"
    INDEX 01 05:48:43
  TRACK 293 AUDIO
    TITLE "0:"
    INDEX 01 05:50:57
  TRACK 294 AUDIO
    TITLE "18:cjc023_1379"
    INDEX 01 05:51:53
  TRACK 295 AUDIO
    TITLE "0:"
    INDEX 01 05:52:62
  TRACK 296 AUDIO
    TITLE "19:cjc023_1380"
    INDEX 01 05:53:11
  TRACK 297 AUDIO
    TITLE "0:"
    INDEX 01 05:55:49
  TRACK 298 AUDIO
    TITLE "18:cjc023_1381"
    INDEX 01 05:56:44
  TRACK 299 AUDIO
    TITLE "0:"
    INDEX 01 05:57:61
  TRACK 300 AUDIO
    TITLE "19:cjc023_1382"
    INDEX 01 05:58:08
  TRACK 301 AUDIO
    TITLE "0:"
    INDEX 01 06:00:70
  TRACK 302 AUDIO
    TITLE "18:cjc023_1383"
    INDEX 01 06:01:65
  TRACK 303 AUDIO
    TITLE "0:"
    INDEX 01 06:03:13
  TRACK 304 AUDIO
    TITLE "19:cjc023_1384"
    INDEX 01 06:03:33
  TRACK 305 AUDIO
    TITLE "0:"
    INDEX 01 06:06:27
  TRACK 306 AUDIO
    TITLE "18:cjc023_1385"
    INDEX 01 06:07:23
  TRACK 307 AUDIO
    TITLE "0:"
    INDEX 01 06:08:61
  TRACK 308 AUDIO
    TITLE "19:cjc023_1386"
    INDEX 01 06:09:08
  TRACK 309 AUDIO
    TITLE "0:"
    INDEX 01 06:11:38
  TRACK 310 AUDIO
    TITLE "18:cjc023_1387"
    INDEX 01 06:12:36
  TRACK 311 AUDIO
    TITLE "0:"
    INDEX 01 06:13:39
  TRACK 312 AUDIO
    TITLE "19:cjc023_1388"
    INDEX 01 06:13:62
  TRACK 313 AUDIO
    TITLE "0:"
    INDEX 01 06:16:22
  TRACK 314 AUDIO
    TITLE "18:cjc023_1389"
    INDEX 01 06:17:17
  TRACK 315 AUDIO
    TITLE "0:"
    INDEX 01 06:18:32
  TRACK 316 AUDIO
    TITLE "19:cjc023_1390"
    INDEX 01 06:18:56
  TRACK 317 AUDIO
    TITLE "0:"
    INDEX 01 06:22:46
  TRACK 318 AUDIO
    TITLE "18:cjc023_1391"
    INDEX 01 06:23:39
  TRACK 319 AUDIO
    TITLE "0:"
    INDEX 01 06:24:66
  TRACK 320 AUDIO
    TITLE "19:cjc023_1392"
    INDEX 01 06:25:13
  TRACK 321 AUDIO
    TITLE "0:"
    INDEX 01 06:27:66
  TRACK 322 AUDIO
    TITLE "18:cjc023_1393"
    INDEX 01 06:28:64
  TRACK 323 AUDIO
    TITLE "0:"
    INDEX 01 06:29:67
  TRACK 324 AUDIO
    TITLE "19:cjc023_1394"
    INDEX 01 06:30:12
  TRACK 325 AUDIO
    TITLE "0:"
    INDEX 01 06:32:09
  TRACK 326 AUDIO
    TITLE "18:cjc023_1395"
    INDEX 01 06:33:08
  TRACK 327 AUDIO
    TITLE "0:"
    INDEX 01 06:34:23
  TRACK 328 AUDIO
    TITLE "19:cjc023_1396"
    INDEX 01 06:34:43
  TRACK 329 AUDIO
    TITLE "0:"
    INDEX 01 06:36:69
  TRACK 330 AUDIO
    TITLE "18:cjc023_1397"
    INDEX 01 06:37:67
  TRACK 331 AUDIO
    TITLE "0:"
    INDEX 01 06:39:09
  TRACK 332 AUDIO
    TITLE "19:cjc023_1398"
    INDEX 01 06:39:34
  TRACK 333 AUDIO
    TITLE "0:"
    INDEX 01 06:41:18
  TRACK 334 AUDIO
    TITLE "18:cjc023_1399"
    INDEX 01 06:42:13
  TRACK 335 AUDIO
    TITLE "0:"
    INDEX 01 06:43:24
  TRACK 336 AUDIO
    TITLE "19:cjc023_1400"
    INDEX 01 06:43:52
  TRACK 337 AUDIO
    TITLE "0:"
    INDEX 01 06:45:39
  TRACK 338 AUDIO
    TITLE "18:cjc023_1401"
    INDEX 01 06:46:38
  TRACK 339 AUDIO
    TITLE "0:"
    INDEX 01 06:47:48
  TRACK 340 AUDIO
    TITLE "19:cjc023_1402"
    INDEX 01 06:47:71
  TRACK 341 AUDIO
    TITLE "0:"
    INDEX 01 06:49:52
  TRACK 342 AUDIO
    TITLE "18:cjc023_1403"
    INDEX 01 06:50:50
  TRACK 343 AUDIO
    TITLE "0:"
    INDEX 01 06:51:63
  TRACK 344 AUDIO
    TITLE "19:cjc023_1404"
    INDEX 01 06:52:08
  TRACK 345 AUDIO
    TITLE "0:"
    INDEX 01 06:54:69
  TRACK 346 AUDIO
    TITLE "18:cjc023_1405"
    INDEX 01 06:55:69
  TRACK 347 AUDIO
    TITLE "0:"
    INDEX 01 06:57:07
  TRACK 348 AUDIO
    TITLE "19:cjc023_1406"
    INDEX 01 06:57:32
  TRACK 349 AUDIO
    TITLE "0:"
    INDEX 01 06:59:17
  TRACK 350 AUDIO
    TITLE "18:cjc023_1407"
    INDEX 01 07:00:17
  TRACK 351 AUDIO
    TITLE "0:"
    INDEX 01 07:01:30
  TRACK 352 AUDIO
    TITLE "19:cjc023_1408"
    INDEX 01 07:01:54
  TRACK 353 AUDIO
    TITLE "0:"
    INDEX 01 07:04:52
  TRACK 354 AUDIO
    TITLE "18:cjc023_1409"
    INDEX 01 07:05:51
  TRACK 355 AUDIO
    TITLE "0:"
    INDEX 01 07:07:11
  TRACK 356 AUDIO
    TITLE "19:cjc023_1410"
    INDEX 01 07:07:33
  TRACK 357 AUDIO
    TITLE "0:"
    INDEX 01 07:10:31
  TRACK 358 AUDIO
    TITLE "18:cjc023_1411"
    INDEX 01 07:11:28
  TRACK 359 AUDIO
    TITLE "0:"
    INDEX 01 07:12:49
  TRACK 360 AUDIO
    TITLE "19:cjc023_1412"
    INDEX 01 07:13:00
  TRACK 361 AUDIO
    TITLE "0:"
    INDEX 01 07:15:20
  TRACK 362 AUDIO
    TITLE "18:cjc023_1413"
    INDEX 01 07:16:16
  TRACK 363 AUDIO
    TITLE "0:"
    INDEX 01 07:17:39
  TRACK 364 AUDIO
    TITLE "19:cjc023_1414"
    INDEX 01 07:17:64
  TRACK 365 AUDIO
    TITLE "0:"
    INDEX 01 07:20:10
  TRACK 366 AUDIO
    TITLE "18:cjc023_1415"
    INDEX 01 07:21:05
  TRACK 367 AUDIO
    TITLE "0:"
    INDEX 01 07:22:20
  TRACK 368 AUDIO
    TITLE "19:cjc023_1416"
    INDEX 01 07:22:48
  TRACK 369 AUDIO
    TITLE "0:"
    INDEX 01 07:25:01
  TRACK 370 AUDIO
    TITLE "18:cjc023_1417"
    INDEX 01 07:25:74
  TRACK 371 AUDIO
    TITLE "0:"
    INDEX 01 07:27:16
  TRACK 372 AUDIO
    TITLE "19:cjc023_1418"
    INDEX 01 07:27:41
  TRACK 373 AUDIO
    TITLE "0:"
    INDEX 01 07:29:46
  TRACK 374 AUDIO
    TITLE "18:cjc023_1419"
    INDEX 01 07:30:40
  TRACK 375 AUDIO
    TITLE "0:"
    INDEX 01 07:31:47
  TRACK 376 AUDIO
    TITLE "19:cjc023_1420"
    INDEX 01 07:31:70
  TRACK 377 AUDIO
    TITLE "0:"
    INDEX 01 07:34:55
  TRACK 378 AUDIO
    TITLE "18:cjc023_1421"
    INDEX 01 07:35:51
  TRACK 379 AUDIO
    TITLE "0:"
    INDEX 01 07:36:72
  TRACK 380 AUDIO
    TITLE "19:cjc023_1422"
    INDEX 01 07:37:22
  TRACK 381 AUDIO
    TITLE "0:"
    INDEX 01 07:39:42
  TRACK 382 AUDIO
    TITLE "18:cjc023_1423"
    INDEX 01 07:40:42
  TRACK 383 AUDIO
    TITLE "0:"
    INDEX 01 07:41:59
  TRACK 384 AUDIO
    TITLE "19:cjc023_1424"
    INDEX 01 07:42:06
  TRACK 385 AUDIO
    TITLE "0:"
    INDEX 01 07:44:44
  TRACK 386 AUDIO
    TITLE "18:cjc023_1425"
    INDEX 01 07:45:39
  TRACK 387 AUDIO
    TITLE "0:"
    INDEX 01 07:46:64
  TRACK 388 AUDIO
    TITLE "19:cjc023_1426"
    INDEX 01 07:47:11
  TRACK 389 AUDIO
    TITLE "0:"
    INDEX 01 07:49:02
  TRACK 390 AUDIO
    TITLE "18:cjc023_1427"
    INDEX 01 07:49:72
  TRACK 391 AUDIO
    TITLE "0:"
    INDEX 01 07:51:01
  TRACK 392 AUDIO
    TITLE "19:cjc023_1428"
    INDEX 01 07:51:22
  TRACK 393 AUDIO
    TITLE "0:"
    INDEX 01 07:53:23
  TRACK 394 AUDIO
    TITLE "18:cjc023_1429"
    INDEX 01 07:54:20
  TRACK 395 AUDIO
    TITLE "0:"
    INDEX 01 07:55:38
  TRACK 396 AUDIO
    TITLE "19:cjc023_1430"
    INDEX 01 07:55:65
  TRACK 397 AUDIO
    TITLE "0:"
    INDEX 01 07:59:29
  TRACK 398 AUDIO
    TITLE "18:cjc023_1431"
    INDEX 01 08:00:25
  TRACK 399 AUDIO
    TITLE "0:"
    INDEX 01 08:01:38
  TRACK 400 AUDIO
    TITLE "19:cjc023_1432"
    INDEX 01 08:01:60
  TRACK 401 AUDIO
    TITLE "0:"
    INDEX 01 08:03:74
